<?xml version="1.0" standalone="no"?><!DOCTYPE svg PUBLIC "-//W3C//DTD SVG 1.1//EN" "http://www.w3.org/Graphics/SVG/1.1/DTD/svg11.dtd"><svg class="icon" width="200px" height="200.00px" viewBox="0 0 1024 1024" version="1.1" xmlns="http://www.w3.org/2000/svg"><path d="M687.104 113.02912h19.12832c15.11424 0 27.38176 12.26752 27.38176 27.38176v193.65888h-73.89184V140.41088c0-15.11424 12.26752-27.38176 27.38176-27.38176z" fill="#D4D4FF" /><path d="M744.26368 344.71936h-95.17056V149.97504c0-26.23488 21.34016-47.57504 47.57504-47.57504s47.57504 21.34016 47.57504 47.57504v32.256c0 5.87776-4.77184 10.62912-10.62912 10.62912-5.87776 0-10.62912-4.77184-10.62912-10.62912V149.97504c0-14.49984-11.79648-26.29632-26.29632-26.29632s-26.29632 11.79648-26.29632 26.29632v173.4656h52.61312v-72.0896c0-5.87776 4.77184-10.62912 10.62912-10.62912 5.87776 0 10.62912 4.77184 10.62912 10.62912v93.36832z"  /><path d="M690.64704 897.57696l-13.59872 1.90464a1185.759232 1185.759232 0 0 1-329.1136 0l-14.5408-2.048c-57.36448-8.04864-102.5024-53.06368-110.6944-110.40768a1367.463936 1367.463936 0 0 1 0-386.82624c8.192-57.344 53.32992-102.35904 110.6944-110.40768l14.5408-2.048a1185.759232 1185.759232 0 0 1 329.1136 0l13.59872 1.90464c57.81504 8.11008 103.13728 53.73952 110.85824 111.616l1.536 11.59168a1367.650304 1367.650304 0 0 1 0 361.49248l-1.536 11.59168c-7.72096 57.89696-53.0432 103.5264-110.85824 111.63648z" fill="#D4D4FF" /><path d="M690.64704 897.57696c57.81504-8.11008 103.13728-53.73952 110.85824-111.616l1.536-11.59168a1367.650304 1367.650304 0 0 0 0-361.49248l-1.536-11.59168c-7.72096-57.856-53.0432-103.50592-110.85824-111.616l-13.59872-1.90464a1191.264256 1191.264256 0 0 0-62.01344-7.02464c-20.70528 1.80224-41.39008 4.13696-62.01344 7.02464l-14.5408 2.048c-49.152 6.90176-89.31328 40.93952-104.96 86.6304 62.58688-3.9936 125.7472-3.23584 188.1088 2.29376l56.9344 5.05856c10.09664 0.90112 18.00192 5.9392 19.3536 12.34944l7.41376 35.24608c10.62912 50.46272 10.62912 101.62176 0 152.08448l-7.41376 35.24608c-1.35168 6.38976-9.25696 11.44832-19.3536 12.34944l-56.9344 5.05856c-68.608 6.08256-138.15808 6.3488-206.86848 0.9216 1.59744 50.15552 5.89824 100.2496 13.02528 150.03648 8.192 57.344 53.32992 102.35904 110.6944 110.40768l14.5408 2.048c20.62336 2.88768 41.28768 5.2224 62.01344 7.02464 20.70528-1.80224 41.39008-4.13696 62.01344-7.02464l13.59872-1.96608z" fill="#EFEDFF" /><path d="M512.49152 921.6c-55.48032 0-110.94016-3.87072-166.03136-11.59168l-14.56128-2.048c-61.68576-8.64256-110.94016-57.7536-119.74656-119.43936-0.83968-5.81632 3.21536-11.20256 9.03168-12.04224 5.81632-0.83968 11.20256 3.21536 12.04224 9.03168 7.4752 52.34688 49.27488 94.02368 101.64224 101.376l14.56128 2.048c108.21632 15.1552 217.94816 15.17568 326.16448 0l13.59872-1.90464c52.87936-7.41376 94.74048-49.5616 101.7856-102.48192l1.536-11.59168a1356.929024 1356.929024 0 0 0 0-358.68672l-1.536-11.59168c-7.04512-52.92032-48.90624-95.06816-101.7856-102.48192l-13.59872-1.90464a1174.829056 1174.829056 0 0 0-326.16448 0l-14.5408 2.048c-52.36736 7.33184-94.16704 49.02912-101.64224 101.376a1359.763456 1359.763456 0 0 0-11.0592 275.5584c0.36864 5.85728-4.096 10.91584-9.95328 11.264-5.87776 0.4096-10.91584-4.096-11.264-9.97376-5.75488-93.24544-1.98656-187.41248 11.22304-279.87968 8.8064-61.66528 58.04032-110.7968 119.74656-119.43936l14.5408-2.048c110.1824-15.44192 221.9008-15.44192 332.06272 0l13.59872 1.90464c62.30016 8.72448 111.616 58.38848 119.93088 120.7296l1.536 11.59168a1378.52928 1378.52928 0 0 1 0 364.31872l-1.536 11.59168c-8.31488 62.3616-57.63072 112.00512-119.93088 120.7296l-13.59872 1.90464c-55.11168 7.76192-110.592 11.63264-166.05184 11.63264z"  /><path d="M678.56384 631.02976l-56.9344 5.05856a1241.165824 1241.165824 0 0 1-218.624 0l-57.09824-5.07904c-10.01472-0.88064-17.89952-5.85728-19.33312-12.20608l-6.77888-30.02368c-12.16512-53.9648-12.16512-108.76928 0-162.73408l6.77888-30.02368c1.4336-6.3488 9.3184-11.32544 19.33312-12.20608l57.09824-5.07904c72.51968-6.43072 146.10432-6.43072 218.624 0l56.9344 5.05856c10.09664 0.90112 18.00192 5.9392 19.3536 12.34944l7.41376 35.24608c10.62912 50.46272 10.62912 101.62176 0 152.08448l-7.41376 35.24608c-1.35168 6.36928-9.25696 11.42784-19.3536 12.30848z" fill="#2ED0FC" /><path d="M427.78624 400.22016a1369.726976 1369.726976 0 0 0-13.02528 236.78976c68.7104 5.4272 138.26048 5.18144 206.86848-0.9216l56.9344-5.05856c10.09664-0.90112 18.00192-5.9392 19.3536-12.34944l7.41376-35.24608c10.62912-50.46272 10.62912-101.62176 0-152.08448l-7.41376-35.24608c-1.35168-6.38976-9.25696-11.44832-19.3536-12.34944l-56.9344-5.05856c-62.3616-5.5296-125.52192-6.28736-188.1088-2.29376a131.62496 131.62496 0 0 0-5.7344 23.81824z" fill="#7CE3FF" /><path d="M512.32768 651.55072c-36.84352 0-73.66656-1.61792-110.24384-4.87424l-57.09824-5.05856c-14.7456-1.31072-26.29632-9.54368-28.75392-20.45952l-6.77888-30.02368c-12.53376-55.54176-12.53376-111.88224 0-167.424l6.77888-30.02368c2.4576-10.93632 14.0288-19.1488 28.75392-20.45952l57.09824-5.07904c73.15456-6.49216 147.3536-6.49216 220.50816 0l56.9344 5.05856c14.90944 1.3312 26.50112 9.66656 28.81536 20.74624l7.41376 35.2256c10.91584 51.9168 10.91584 104.5504 0 156.4672l-7.41376 35.24608c-2.33472 11.07968-13.90592 19.41504-28.81536 20.74624l-0.94208-10.58816 0.94208 10.58816-56.9344 5.05856a1252.864 1252.864 0 0 1-110.26432 4.85376z m0-266.99776c-36.20864 0-72.41728 1.59744-108.35968 4.79232l-57.09824 5.07904c-6.36928 0.57344-9.54368 3.21536-9.91232 4.05504l-6.73792 29.92128c-11.81696 52.44928-11.81696 105.61536 0 158.06464l6.77888 30.02368c0.34816 0.73728 3.52256 3.3792 9.89184 3.95264l57.09824 5.05856a1227.69408 1227.69408 0 0 0 216.73984 0l56.9344-5.05856c6.36928-0.57344 9.54368-3.21536 9.91232-4.05504l7.3728-35.10272c10.30144-49.00864 10.30144-98.69312 0-147.70176l-7.41376-35.2256c-0.34816-0.7168-3.52256-3.3792-9.89184-3.93216l-56.9344-5.05856a1217.800192 1217.800192 0 0 0-108.38016-4.8128z"  /><path d="M382.48448 759.6032m-60.74368 0a60.74368 60.74368 0 1 0 121.48736 0 60.74368 60.74368 0 1 0-121.48736 0Z" fill="#FFFFFF" /><path d="M382.48448 830.976c-39.36256 0-71.3728-32.01024-71.3728-71.3728s32.01024-71.3728 71.3728-71.3728 71.3728 32.01024 71.3728 71.3728-32.01024 71.3728-71.3728 71.3728z m0-121.46688c-27.62752 0-50.09408 22.46656-50.09408 50.09408s22.46656 50.09408 50.09408 50.09408 50.09408-22.46656 50.09408-50.09408-22.46656-50.09408-50.09408-50.09408z"  /><path d="M700.8256 720.67072h-191.16032c-5.87776 0-10.62912-4.77184-10.62912-10.62912s4.77184-10.62912 10.62912-10.62912h191.16032c5.87776 0 10.62912 4.77184 10.62912 10.62912s-4.75136 10.62912-10.62912 10.62912zM700.8256 770.2528h-191.16032c-5.87776 0-10.62912-4.77184-10.62912-10.62912s4.77184-10.62912 10.62912-10.62912h191.16032c5.87776 0 10.62912 4.77184 10.62912 10.62912s-4.75136 10.62912-10.62912 10.62912zM599.40864 819.83488h-89.72288c-5.87776 0-10.62912-4.77184-10.62912-10.62912s4.77184-10.62912 10.62912-10.62912h89.72288c5.87776 0 10.62912 4.77184 10.62912 10.62912s-4.75136 10.62912-10.62912 10.62912z" fill="#4C5699" /><path d="M334.60224 522.01472a47.88224 33.87392 0 1 0 95.76448 0 47.88224 33.87392 0 1 0-95.76448 0Z" fill="#FF8E9E" /><path d="M567.76704 523.73504c0 29.2864-23.38816 18.7392-53.02272 17.67424-26.95168-0.98304-53.02272 11.61216-53.02272-17.67424s23.73632-53.02272 53.02272-53.02272 53.02272 23.73632 53.02272 53.02272z" fill="#4C5699" /><path d="M548.53632 554.76224c-5.26336 0-10.93632-0.6144-16.91648-1.26976-5.55008-0.6144-11.264-1.2288-17.22368-1.45408-6.2464-0.22528-12.63616 0.36864-18.80064 0.96256-13.74208 1.29024-26.7264 2.51904-35.96288-5.89824-5.71392-5.20192-8.4992-12.86144-8.4992-23.36768 0-35.10272 28.54912-63.65184 63.65184-63.65184s63.65184 28.54912 63.65184 63.65184c0 11.07968-2.8672 19.0464-8.78592 24.35072-5.81632 5.18144-12.96384 6.67648-21.11488 6.67648z m-36.90496-24.064c1.16736 0 2.33472 0.02048 3.52256 0.06144 6.73792 0.24576 13.12768 0.94208 18.78016 1.55648 8.04864 0.88064 19.06688 2.08896 21.504-0.1024 0.79872-0.7168 1.72032-3.35872 1.72032-8.4992 0-23.36768-19.00544-42.37312-42.37312-42.37312-23.36768 0-42.37312 19.00544-42.37312 42.37312 0 4.58752 0.83968 6.98368 1.55648 7.61856 2.27328 2.06848 12.30848 1.1264 19.64032 0.45056 5.48864-0.512 11.63264-1.08544 18.0224-1.08544z"  /><path d="M600.82176 522.01472a47.88224 33.87392 0 1 0 95.76448 0 47.88224 33.87392 0 1 0-95.76448 0Z" fill="#FFB5C0" /><path d="M651.4688 493.19936c-3.03104 0-6.06208-1.29024-8.15104-3.80928-7.02464-8.37632-14.31552-12.65664-21.68832-12.6976h-0.1024c-13.08672 0-24.00256 12.5952-24.10496 12.71808-3.80928 4.44416-10.50624 5.0176-14.97088 1.2288-4.46464-3.7888-5.05856-10.4448-1.31072-14.92992 0.69632-0.8192 17.26464-20.29568 40.38656-20.29568 13.98784 0 26.80832 6.84032 38.0928 20.29568a10.647552 10.647552 0 0 1-1.3312 14.99136c-1.96608 1.67936-4.4032 2.49856-6.81984 2.49856zM440.81152 493.19936c-3.03104 0-6.06208-1.29024-8.15104-3.80928-7.02464-8.37632-14.31552-12.65664-21.68832-12.6976h-0.1024c-13.08672 0-24.00256 12.5952-24.12544 12.71808-3.80928 4.44416-10.50624 5.0176-14.97088 1.2288-4.46464-3.7888-5.05856-10.4448-1.31072-14.92992 0.69632-0.8192 17.26464-20.29568 40.38656-20.29568 13.98784 0 26.80832 6.84032 38.0928 20.29568a10.647552 10.647552 0 0 1-1.3312 14.99136 10.42432 10.42432 0 0 1-6.79936 2.49856z"  /></svg>