<?xml version="1.0" standalone="no"?><!DOCTYPE svg PUBLIC "-//W3C//DTD SVG 1.1//EN" "http://www.w3.org/Graphics/SVG/1.1/DTD/svg11.dtd"><svg class="icon" width="200px" height="200.00px" viewBox="0 0 1024 1024" version="1.1" xmlns="http://www.w3.org/2000/svg"><path d="M741.376 799.41632H256.90112c-18.86208 0-34.14016-15.29856-34.14016-34.14016V739.5328c0-18.86208 15.29856-34.14016 34.14016-34.14016H741.376c18.86208 0 34.14016 15.29856 34.14016 34.14016v25.72288c0 18.86208-15.27808 34.16064-34.14016 34.16064z" fill="#D4D4FF" /><path d="M731.21792 810.04544H267.07968c-30.28992 0-54.94784-24.63744-54.94784-54.94784v-5.40672c0-30.28992 24.63744-54.94784 54.94784-54.94784h464.13824c30.28992 0 54.94784 24.63744 54.94784 54.94784v5.40672c0 30.28992-24.65792 54.94784-54.94784 54.94784z m-464.13824-94.02368c-18.57536 0-33.6896 15.11424-33.6896 33.6896v5.40672c0 18.57536 15.11424 33.6896 33.6896 33.6896h464.13824c18.57536 0 33.6896-15.11424 33.6896-33.6896v-5.40672c0-18.57536-15.11424-33.6896-33.6896-33.6896H267.07968z"  /><path d="M775.51616 554.3936H248.48384V199.12704c0-36.4544 27.48416-67.05152 63.73376-70.92224l84.35712-9.03168c76.73856-8.21248 154.13248-8.21248 230.87104 0l84.35712 9.03168c36.2496 3.87072 63.73376 34.46784 63.73376 70.92224V554.3936z" fill="#D4D4FF" /><path d="M775.51616 554.3936h-283.2384V199.12704c0-36.4544 14.76608-67.05152 34.24256-70.92224l45.34272-9.03168c41.24672-8.21248 82.82112-8.21248 124.06784 0l45.34272 9.03168c19.47648 3.87072 34.24256 34.46784 34.24256 70.92224V554.3936z" fill="#EFEDFF" /><path d="M786.16576 565.02272H237.83424V199.12704c0-41.984 31.47776-77.02528 73.23648-81.48992l84.35712-9.03168c77.35296-8.27392 155.77088-8.27392 233.12384 0l84.35712 9.03168a81.803264 81.803264 0 0 1 73.23648 81.48992v16.42496c0 5.87776-4.75136 10.62912-10.62912 10.62912-5.87776 0-10.62912-4.75136-10.62912-10.62912v-16.42496c0-31.08864-23.30624-57.0368-54.23104-60.35456l-84.35712-9.03168a1076.95104 1076.95104 0 0 0-228.59776 0L313.344 138.77248a60.563456 60.563456 0 0 0-54.23104 60.35456v344.63744h505.79456V271.50336c0-5.87776 4.75136-10.62912 10.62912-10.62912 5.87776 0 10.62912 4.75136 10.62912 10.62912v293.51936z"  /><path d="M190.17728 748.50304l57.0368-189.5424c7.4752-24.86272 33.71008-38.95296 58.5728-31.47776 24.86272 7.4752 38.95296 33.71008 31.47776 58.5728l-87.49056 290.75456c-7.4752 24.86272-33.71008 38.95296-58.5728 31.47776-24.86272-7.4752-38.95296-33.71008-31.47776-58.5728l9.44128-31.35488" fill="#9EA2E3" /><path d="M204.6976 920.92416c-5.48864 0-11.0592-0.79872-16.56832-2.4576C157.696 909.312 140.3904 877.09696 149.54496 846.66368l9.44128-31.35488c1.69984-5.632 7.63904-8.8064 13.25056-7.10656 5.61152 1.67936 8.8064 7.61856 7.10656 13.25056l-9.44128 31.35488c-5.77536 19.21024 5.14048 39.54688 24.35072 45.32224 19.21024 5.77536 39.54688-5.14048 45.32224-24.35072l87.49056-290.75456c2.80576-9.29792 1.80224-19.1488-2.78528-27.70944-4.608-8.56064-12.26752-14.82752-21.56544-17.6128-9.29792-2.80576-19.1488-1.80224-27.70944 2.78528-8.56064 4.608-14.82752 12.26752-17.6128 21.56544l-57.0368 189.5424c-1.69984 5.632-7.61856 8.82688-13.25056 7.10656a10.635264 10.635264 0 0 1-7.10656-13.25056l57.0368-189.5424c4.44416-14.7456 14.35648-26.86976 27.91424-34.16064 13.55776-7.29088 29.16352-8.86784 43.88864-4.42368 14.7456 4.44416 26.86976 14.35648 34.16064 27.91424 7.29088 13.55776 8.86784 29.14304 4.42368 43.88864l-87.49056 290.75456c-7.49568 24.90368-30.45376 41.04192-55.23456 41.04192z"  /><path d="M683.04896 573.72672l94.90432 315.392c5.4272 18.06336 24.4736 28.30336 42.53696 22.85568l24.63744-7.41376c18.06336-5.4272 28.30336-24.4736 22.85568-42.53696l-94.90432-315.392c-5.4272-18.06336-24.4736-28.30336-42.53696-22.85568l-24.63744 7.41376c-18.04288 5.44768-28.28288 24.49408-22.85568 42.53696z" fill="#EFEDFF" /><path d="M817.37728 921.6c-8.94976 0-17.8176-2.21184-25.92768-6.57408-12.92288-6.94272-22.38464-18.51392-26.60352-32.5632l-89.04704-295.936c-4.23936-14.04928-2.72384-28.91776 4.21888-41.84064s18.51392-22.38464 32.5632-26.60352l5.16096-1.55648c29.02016-8.72448 59.71968 7.76192 68.44416 36.78208l89.04704 295.936c8.72448 28.99968-7.76192 59.71968-36.78208 68.44416l-5.18144 1.55648c-5.2224 1.57696-10.56768 2.3552-15.89248 2.3552z m-83.74272-386.1504c-3.25632 0-6.53312 0.47104-9.74848 1.4336l-5.16096 1.55648c-8.62208 2.60096-15.70816 8.37632-19.968 16.30208a33.40288 33.40288 0 0 0-2.58048 25.64096l89.04704 295.936c2.60096 8.62208 8.37632 15.70816 16.30208 19.968s17.01888 5.18144 25.64096 2.58048l5.18144-1.55648c17.77664-5.34528 27.89376-24.1664 22.54848-41.96352l-89.04704-295.936c-2.60096-8.62208-8.37632-15.70816-16.30208-19.968a33.8944 33.8944 0 0 0-15.91296-3.9936z"  /><path d="M754.23744 574.75072l-92.09856 12.86144a1085.595648 1085.595648 0 0 1-300.2368 0l-92.09856-12.86144c-25.96864 0-47.02208-21.05344-47.02208-47.02208 0-25.96864 21.05344-47.02208 47.02208-47.02208l92.09856 12.86144c99.59424 13.90592 200.64256 13.90592 300.2368 0l92.09856-12.86144c25.96864 0 47.02208 21.05344 47.02208 47.02208-0.02048 25.96864-21.07392 47.02208-47.02208 47.02208z" fill="#D4D4FF" /><path d="M512 608.68608c-50.64704 0-101.29408-3.52256-151.59296-10.52672l-91.40224-12.75904c-31.4368-0.4096-56.87296-26.112-56.87296-57.63072 0-31.78496 25.86624-57.6512 57.6512-57.6512l1.47456 0.1024 92.09856 12.86144c98.63168 13.78304 198.656 13.78304 297.30816 0l92.83584-12.96384h0.73728c31.78496 0 57.6512 25.86624 57.6512 57.6512 0 31.51872-25.43616 57.22112-56.87296 57.63072l-91.40224 12.75904c-50.31936 7.00416-100.9664 10.52672-151.61344 10.52672z m-242.91328-117.32992c-19.74272 0.36864-35.69664 16.54784-35.69664 36.37248 0 20.0704 16.32256 36.39296 36.39296 36.39296l1.47456 0.1024 92.09856 12.86144c98.63168 13.78304 198.656 13.78304 297.30816 0l92.83584-12.96384h0.73728c20.0704 0 36.39296-16.32256 36.39296-36.39296 0-19.82464-15.95392-36.00384-35.69664-36.37248l-91.32032 12.75904a1095.735296 1095.735296 0 0 1-303.18592 0l-91.3408-12.75904z"  /><path d="M530.71872 646.36928h-37.41696c-27.42272 0-49.664-22.24128-49.664-49.664V365.54752c0-27.42272 22.24128-49.664 49.664-49.664h37.41696c27.42272 0 49.664 22.24128 49.664 49.664v231.15776c0 27.42272-22.24128 49.664-49.664 49.664z" fill="#FFB357" /><path d="M515.93216 656.9984h-7.86432c-41.41056 0-75.07968-33.6896-75.07968-75.07968v-201.58464c0-41.39008 33.6896-75.07968 75.07968-75.07968h7.86432c41.41056 0 75.07968 33.6896 75.07968 75.07968v201.58464c0 41.39008-33.6896 75.07968-75.07968 75.07968z m-7.86432-330.48576c-29.67552 0-53.82144 24.14592-53.82144 53.82144v201.58464c0 29.67552 24.14592 53.82144 53.82144 53.82144h7.86432c29.67552 0 53.82144-24.14592 53.82144-53.82144v-201.58464c0-29.67552-24.14592-53.82144-53.82144-53.82144h-7.86432z"  /><path d="M835.54304 398.76608H188.45696c-18.86208 0-34.14016-15.29856-34.14016-34.14016v-25.72288c0-18.86208 15.29856-34.14016 34.14016-34.14016h647.10656c18.86208 0 34.14016 15.29856 34.14016 34.14016v25.72288c0 18.86208-15.29856 34.14016-34.16064 34.14016z" fill="#FFB357" /><path d="M835.54304 398.76608H453.77536c-18.86208 0-34.14016-15.29856-34.14016-34.14016v-25.72288c0-18.86208 15.29856-34.14016 34.14016-34.14016h381.76768c18.86208 0 34.14016 15.29856 34.14016 34.14016v25.72288c0.02048 18.86208-15.27808 34.14016-34.14016 34.14016z" fill="#FFCE71" /><path d="M825.38496 409.3952H198.61504c-30.28992 0-54.94784-24.63744-54.94784-54.94784v-5.40672c0-30.28992 24.63744-54.94784 54.94784-54.94784h626.76992c30.28992 0 54.94784 24.63744 54.94784 54.94784v5.40672c0 30.3104-24.65792 54.94784-54.94784 54.94784zM198.61504 315.37152c-18.57536 0-33.6896 15.11424-33.6896 33.6896v5.40672c0 18.57536 15.11424 33.6896 33.6896 33.6896h626.76992c18.57536 0 33.6896-15.11424 33.6896-33.6896v-5.40672c0-18.57536-15.11424-33.6896-33.6896-33.6896H198.61504z"  /><path d="M345.96864 247.25504a49.90976 38.78912 0 1 0 99.81952 0 49.90976 38.78912 0 1 0-99.81952 0Z" fill="#FF8E9E" /><path d="M405.8112 219.09504c-5.87776 0-10.62912-4.75136-10.62912-10.62912V182.02624c0-5.87776 4.75136-10.62912 10.62912-10.62912 5.87776 0 10.62912 4.75136 10.62912 10.62912v26.43968c0 5.87776-4.77184 10.62912-10.62912 10.62912z"  /><path d="M578.21184 247.25504a49.90976 38.78912 0 1 0 99.81952 0 49.90976 38.78912 0 1 0-99.81952 0Z" fill="#FF8E9E" /><path d="M604.11904 219.09504c-5.87776 0-10.62912-4.75136-10.62912-10.62912V182.02624c0-5.87776 4.75136-10.62912 10.62912-10.62912s10.62912 4.75136 10.62912 10.62912v26.43968c0 5.87776-4.75136 10.62912-10.62912 10.62912zM506.44992 226.16064c-18.10432 0-32.41984-8.47872-39.56736-15.64672a10.637312 10.637312 0 0 1 0.04096-15.03232 10.637312 10.637312 0 0 1 14.97088-0.02048c2.31424 2.23232 22.99904 20.80768 52.6336-1.00352a10.631168 10.631168 0 1 1 12.61568 17.12128c-14.58176 10.71104-28.48768 14.58176-40.69376 14.58176z"  /></svg>