<?xml version="1.0" standalone="no"?><!DOCTYPE svg PUBLIC "-//W3C//DTD SVG 1.1//EN" "http://www.w3.org/Graphics/SVG/1.1/DTD/svg11.dtd"><svg class="icon" width="200px" height="200.00px" viewBox="0 0 1024 1024" version="1.1" xmlns="http://www.w3.org/2000/svg"><path d="M701.07136 474.37824l-5.7344-9.76896h2.17088v-96.84992c0-0.28672 0.32768-0.45056 0.55296-0.26624l23.4496 18.04288c13.45536 10.3424 32.50176 9.1136 44.50304-2.88768l68.7104-68.7104c12.71808-12.71808 13.25056-33.1776 1.18784-46.53056l-93.40928-103.48544a154.126336 154.126336 0 0 0-114.42176-50.85184H395.93984c-43.6224 0-85.1968 18.47296-114.42176 50.85184l-93.40928 103.48544c-12.06272 13.35296-11.53024 33.81248 1.18784 46.53056l68.7104 68.7104c12.00128 12.00128 31.04768 13.23008 44.50304 2.88768l23.4496-18.04288c0.22528-0.16384 0.55296-0.02048 0.55296 0.26624v96.84992c-53.59616 94.26944-111.37024 195.80928-135.8848 301.44512l-0.16384 0.63488c-14.49984 37.15072 5.24288 78.848 43.17184 91.15648l58.08128 18.8416c140.82048 45.69088 310.59968 45.54752 451.33824-0.43008l43.88864-14.336c38.54336-12.5952 63.42656-55.3984 55.31648-95.10912-21.05344-102.99392-87.92064-201.78944-141.18912-292.43392z" fill="#FFB5C0" /><path d="M332.16512 817.78688l0.14336-0.69632c24.51456-114.9952 82.28864-225.52576 135.8848-328.17152L536.3712 113.02912H395.93984c-43.6224 0-85.1968 18.47296-114.42176 50.85184l-93.40928 103.48544c-12.06272 13.35296-11.53024 33.81248 1.18784 46.53056l68.7104 68.7104c12.00128 12.00128 31.04768 13.23008 44.50304 2.88768l23.4496-18.04288c0.22528-0.16384 0.55296-0.02048 0.55296 0.26624v96.84992c-53.59616 94.26944-111.37024 195.80928-135.8848 301.44512l-0.16384 0.67584c-14.49984 37.15072 5.24288 78.848 43.17184 91.15648l58.08128 18.8416c16.1792 5.24288 32.74752 9.87136 49.60256 13.90592-13.86496-20.15232-18.24768-47.45216-9.15456-72.8064z" fill="#FFB5C0" /><path d="M743.07584 876.25728l43.88864-14.336c38.54336-12.5952 63.42656-55.3984 55.31648-95.10912-21.05344-102.99392-87.92064-201.80992-141.18912-292.43392l-5.7344-9.76896h2.17088v-96.84992c0-0.28672 0.32768-0.45056 0.55296-0.26624l23.4496 18.04288c13.45536 10.3424 32.50176 9.1136 44.50304-2.88768l68.7104-68.7104c12.71808-12.71808 13.25056-33.1776 1.18784-46.53056l-93.40928-103.48544a154.126336 154.126336 0 0 0-114.42176-50.85184h-91.68896L479.04768 492.544c-53.59616 102.62528-122.22464 209.55136-146.7392 324.54656l-0.14336 0.69632c-9.09312 25.35424-4.7104 52.65408 9.17504 72.8064 129.86368 31.1296 277.15584 26.35776 401.73568-14.336z" fill="#FFDBE0" /><path d="M516.7104 921.6c-78.39744 0-156.7744-11.59168-228.27008-34.79552l-58.08128-18.8416c-21.15584-6.8608-38.07232-21.72928-47.59552-41.82016-9.4208-19.8656-10.30144-42.06592-2.49856-62.5664 8.47872-36.47488 21.17632-74.26048 38.85056-115.5072a10.62912 10.62912 0 0 1 13.96736-5.59104 10.62912 10.62912 0 0 1 5.59104 13.96736c-17.18272 40.09984-29.51168 76.75904-37.70368 112.0256l-0.59392 2.10944c-5.9392 15.21664-5.36576 31.70304 1.6384 46.46912 6.98368 14.76608 19.39456 25.66144 34.9184 30.69952l58.08128 18.8416c139.30496 45.19936 305.5616 45.056 444.74368-0.4096l43.88864-14.336c33.66912-10.99776 55.296-48.16896 48.18944-82.86208-17.48992-85.54496-66.9696-167.71072-114.85184-247.17312-8.33536-13.84448-16.95744-28.16-25.088-42.00448l-15.17568-25.8048h10.1376v-86.2208c0-4.21888 2.3552-7.9872 6.12352-9.85088 3.76832-1.86368 8.192-1.4336 11.53024 1.14688l23.4496 18.04288c9.19552 7.0656 22.30272 6.20544 30.49472-1.98656l68.7104-68.7104c8.72448-8.72448 9.07264-22.7328 0.8192-31.88736l-93.40928-103.48544c-27.15648-30.08512-65.98656-47.34976-106.51648-47.34976H395.93984c-40.52992 0-79.36 17.26464-106.51648 47.34976L195.9936 274.51392c-8.27392 9.15456-7.90528 23.16288 0.8192 31.88736l68.7104 68.7104c8.192 8.192 21.2992 9.05216 30.49472 1.98656l23.4496-18.04288c3.35872-2.56 7.76192-3.01056 11.55072-1.14688 3.7888 1.86368 6.12352 5.632 6.12352 9.85088v99.67616l-1.39264 2.43712c-17.22368 30.26944-34.97984 61.50144-51.79392 93.184-2.7648 5.18144-9.19552 7.168-14.37696 4.4032-5.18144-2.7648-7.168-9.19552-4.4032-14.37696 16.52736-31.10912 33.87392-61.66528 50.70848-91.27936v-73.13408l-6.88128 5.28384c-17.63328 13.55776-42.78272 11.91936-58.51136-3.80928l-68.7104-68.7104c-16.73216-16.73216-17.42848-43.6224-1.55648-61.19424l93.40928-103.48544C304.80384 122.22464 349.3888 102.4 395.93984 102.4h232.1408c46.55104 0 91.136 19.82464 122.30656 54.3744l93.40928 103.48544c15.85152 17.57184 15.17568 44.4416-1.57696 61.17376l-68.7104 68.7104c-15.72864 15.72864-40.87808 17.36704-58.51136 3.80928l-6.88128-5.28384v76.73856l2.10944 3.584c8.06912 13.74208 16.2816 27.36128 24.9856 41.79968 48.78336 80.9984 99.24608 164.7616 117.4528 253.89056 9.19552 44.9536-18.82112 93.10208-62.42304 107.35616l-43.88864 14.336C674.5088 909.84448 595.59936 921.6 516.7104 921.6z"  /><path d="M284.38528 550.42048a10.627072 10.627072 0 0 1-9.33888-15.70816c13.86496-25.4976 28.20096-50.688 42.04544-75.03872l3.21536-5.67296h56.91392c5.87776 0 10.62912 4.77184 10.62912 10.62912 0 5.87776-4.77184 10.62912-10.62912 10.62912h-44.52352c-12.9024 22.69184-26.13248 46.05952-38.95296 69.61152a10.665984 10.665984 0 0 1-9.35936 5.55008zM516.7104 921.6c-78.39744 0-156.7744-11.59168-228.27008-34.79552l-58.08128-18.8416c-21.15584-6.8608-38.05184-21.72928-47.57504-41.82016-9.4208-19.8656-10.30144-42.06592-2.49856-62.58688 9.46176-40.77568 24.35072-83.49696 45.4656-130.58048a10.60864 10.60864 0 0 1 14.04928-5.34528 10.60864 10.60864 0 0 1 5.34528 14.04928c-20.56192 45.85472-35.0208 87.32672-44.17536 126.79168l-0.59392 2.08896c-5.9392 15.21664-5.36576 31.72352 1.6384 46.46912 6.98368 14.7456 19.39456 25.66144 34.9184 30.69952l58.08128 18.8416c139.30496 45.19936 305.5616 45.056 444.74368-0.4096l43.88864-14.336c33.66912-10.99776 55.296-48.16896 48.18944-82.86208-17.48992-85.54496-66.99008-167.71072-114.85184-247.17312-8.33536-13.84448-16.95744-28.16-25.088-42.00448l-2.6624-4.52608h-46.12096c-5.87776 0-10.62912-4.77184-10.62912-10.62912 0-5.87776 4.77184-10.62912 10.62912-10.62912h58.28608l8.82688 15.01184c8.06912 13.74208 16.2816 27.36128 24.9856 41.79968 48.78336 80.9984 99.24608 164.7616 117.47328 253.89056 9.19552 44.9536-18.82112 93.10208-62.42304 107.35616l-43.88864 14.336C674.5088 909.84448 595.59936 921.6 516.7104 921.6z"  /><path d="M478.14656 290.95936l-51.15904-46.81728-20.95104-19.18976c-25.86624-23.67488-5.2224-61.1328 33.71008-61.1328h149.99552c38.93248 0 59.57632 37.43744 33.71008 61.1328l-12.3904 11.34592" fill="#FF8E9E" /><path d="M478.14656 301.58848c-2.56 0-5.14048-0.9216-7.18848-2.78528l-72.11008-66.00704c-14.0288-12.84096-18.55488-30.43328-12.10368-47.06304 7.68-19.78368 28.48768-32.54272 52.98176-32.54272h149.99552c24.51456 0 45.30176 12.77952 52.98176 32.54272 6.4512 16.62976 1.9456 34.22208-12.10368 47.06304l-12.41088 11.34592a10.62912 10.62912 0 0 1-15.03232-0.67584 10.62912 10.62912 0 0 1 0.67584-15.03232l12.41088-11.34592c7.51616-6.88128 9.87136-15.29856 6.61504-23.6544-3.66592-9.44128-15.33952-18.98496-33.15712-18.98496H439.7056c-17.8176 0-29.4912 9.54368-33.15712 18.98496-3.25632 8.37632-0.90112 16.77312 6.63552 23.6544l72.11008 66.00704a10.647552 10.647552 0 0 1 0.67584 15.03232 10.496 10.496 0 0 1-7.82336 3.46112z"  /><path d="M599.51104 307.8144c0-9.50272-1.6384-18.61632-4.62848-27.09504-5.98016-16.896-27.48416-21.87264-40.16128-9.19552l-36.29056 36.29056 36.29056 36.29056c12.67712 12.67712 34.16064 7.70048 40.16128-9.19552a81.38752 81.38752 0 0 0 4.62848-27.09504z" fill="#B28AE4" /><path d="M571.8016 361.84064c-9.13408 0-17.96096-3.60448-24.59648-10.24l-43.80672-43.80672 43.80672-43.80672c8.51968-8.51968 20.62336-12.02176 32.3584-9.35936 11.81696 2.6624 21.27872 11.10016 25.33376 22.528 3.4816 9.80992 5.24288 20.13184 5.24288 30.63808s-1.76128 20.80768-5.24288 30.63808c-4.05504 11.42784-13.5168 19.8656-25.33376 22.528-2.58048 0.59392-5.20192 0.88064-7.76192 0.88064z m-38.31808-54.04672l28.75392 28.75392c3.3792 3.3792 7.9872 4.7104 12.63616 3.66592 4.7104-1.06496 8.35584-4.3008 9.97376-8.88832 2.6624-7.53664 4.03456-15.4624 4.03456-23.53152s-1.35168-15.99488-4.03456-23.53152c-1.61792-4.58752-5.26336-7.82336-9.97376-8.88832-4.64896-1.04448-9.25696 0.28672-12.63616 3.66592l-28.75392 28.75392z"  /><path d="M424.48896 307.8144c0-9.50272 1.6384-18.61632 4.62848-27.09504 5.98016-16.896 27.48416-21.87264 40.16128-9.19552l36.29056 36.29056-36.29056 36.29056c-12.67712 12.67712-34.16064 7.70048-40.16128-9.19552a81.38752 81.38752 0 0 1-4.62848-27.09504z" fill="#B28AE4" /><path d="M452.1984 361.84064c-2.58048 0-5.18144-0.28672-7.76192-0.88064-11.81696-2.6624-21.27872-11.10016-25.33376-22.528-3.4816-9.8304-5.24288-20.13184-5.24288-30.63808s1.76128-20.80768 5.24288-30.63808c4.05504-11.44832 13.5168-19.8656 25.33376-22.528 11.73504-2.64192 23.83872 0.83968 32.3584 9.35936l43.80672 43.80672-43.80672 43.80672c-6.63552 6.656-15.4624 10.24-24.59648 10.24z m0.04096-86.81472c-1.024 0-2.06848 0.12288-3.11296 0.34816-4.7104 1.06496-8.35584 4.3008-9.97376 8.88832-2.6624 7.53664-4.01408 15.4624-4.01408 23.53152s1.35168 15.99488 4.01408 23.53152c1.61792 4.58752 5.26336 7.82336 9.97376 8.88832 4.64896 1.06496 9.25696-0.28672 12.63616-3.66592l28.75392-28.75392-28.75392-28.75392c-2.62144-2.62144-5.98016-4.01408-9.5232-4.01408z"  /><path d="M512.26624 307.8144m-27.40224 0a27.40224 27.40224 0 1 0 54.80448 0 27.40224 27.40224 0 1 0-54.80448 0Z" fill="#C9AAF2" /><path d="M512.26624 345.84576c-20.97152 0-38.05184-17.05984-38.05184-38.05184s17.05984-38.05184 38.05184-38.05184 38.05184 17.05984 38.05184 38.05184-17.08032 38.05184-38.05184 38.05184z m0-54.80448c-9.25696 0-16.77312 7.51616-16.77312 16.77312s7.51616 16.77312 16.77312 16.77312 16.77312-7.51616 16.77312-16.77312-7.53664-16.77312-16.77312-16.77312z"  /><path d="M323.70688 605.51168a50.9952 39.60832 0 1 0 101.9904 0 50.9952 39.60832 0 1 0-101.9904 0Z" fill="#FF8E9E" /><path d="M392.06912 577.41312c-5.87776 0-10.62912-4.77184-10.62912-10.62912v-27.01312c0-5.87776 4.77184-10.62912 10.62912-10.62912s10.62912 4.77184 10.62912 10.62912v27.01312c0 5.87776-4.75136 10.62912-10.62912 10.62912z"  /><path d="M582.656 605.51168a50.9952 39.60832 0 1 0 101.9904 0 50.9952 39.60832 0 1 0-101.9904 0Z" fill="#FFB5C0" /><path d="M616.36608 577.41312c-5.87776 0-10.62912-4.77184-10.62912-10.62912v-27.01312c0-5.87776 4.77184-10.62912 10.62912-10.62912 5.87776 0 10.62912 4.77184 10.62912 10.62912v27.01312c0.02048 5.87776-4.75136 10.62912-10.62912 10.62912zM505.73312 584.62208c-18.41152 0-32.99328-8.62208-40.2432-15.93344a10.637312 10.637312 0 0 1 15.03232-15.0528c2.37568 2.29376 23.61344 21.38112 54.04672-1.00352a10.631168 10.631168 0 1 1 12.61568 17.12128c-14.848 10.93632-29.02016 14.86848-41.45152 14.86848z"  /></svg>