<?xml version="1.0" standalone="no"?><!DOCTYPE svg PUBLIC "-//W3C//DTD SVG 1.1//EN" "http://www.w3.org/Graphics/SVG/1.1/DTD/svg11.dtd"><svg class="icon" width="200px" height="200.00px" viewBox="0 0 1024 1024" version="1.1" xmlns="http://www.w3.org/2000/svg"><path d="M524.63616 827.45344c-3.93216 0.57344-7.92576 0.88064-12.02176 0.88064-45.62944 0-82.6368-36.98688-82.6368-82.6368 0-45.62944 36.98688-82.6368 82.6368-82.6368h0.28672a138.489856 138.489856 0 0 1 48.9472-45.99808 137.27744 137.27744 0 0 0-49.21344-9.09312c-76.06272 0-137.70752 61.66528-137.70752 137.70752 0 76.06272 61.66528 137.70752 137.70752 137.70752 24.30976 0 47.12448-6.32832 66.94912-17.36704-21.4016-8.17152-40.22272-21.54496-54.94784-38.56384z" fill="#64B3FB" /><path d="M429.99808 745.69728c0 45.62944 36.98688 82.6368 82.6368 82.6368 4.07552 0 8.0896-0.3072 12.02176-0.88064-20.8896-24.14592-33.54624-55.6032-33.54624-90.03008 0-27.38176 8.02816-52.87936 21.8112-74.3424h-0.28672c-45.64992 0-82.6368 36.98688-82.6368 82.61632z" fill="#88C5FD" /><path d="M650.3424 745.69728c0-58.71616-36.7616-108.81024-88.49408-128.6144a138.489856 138.489856 0 0 0-48.9472 45.99808c45.50656 0.14336 82.35008 37.08928 82.35008 82.61632 0 41.55392-30.67904 75.91936-70.61504 81.75616A137.930752 137.930752 0 0 0 579.584 866.03776c42.1888-23.53152 70.7584-68.58752 70.7584-120.34048z" fill="#ADD8FF" /><path d="M524.63616 827.45344c39.936-5.81632 70.61504-40.20224 70.61504-81.75616 0-45.54752-36.84352-82.47296-82.35008-82.61632a137.007104 137.007104 0 0 0-21.8112 74.3424c0 34.42688 12.65664 65.88416 33.54624 90.03008z" fill="#ADD8FF" /><path d="M292.4544 466.51392m-65.57696 0a65.57696 65.57696 0 1 0 131.15392 0 65.57696 65.57696 0 1 0-131.15392 0Z" fill="#FFBD86" /><path d="M292.43392 542.74048c-42.02496 0-76.20608-34.18112-76.20608-76.22656s34.18112-76.20608 76.20608-76.20608S368.64 424.48896 368.64 466.51392s-34.16064 76.22656-76.20608 76.22656z m0-131.15392c-30.28992 0-54.94784 24.63744-54.94784 54.94784 0 30.28992 24.63744 54.94784 54.94784 54.94784s54.94784-24.63744 54.94784-54.94784c0-30.3104-24.63744-54.94784-54.94784-54.94784z"  /><path d="M742.15424 466.51392m-65.57696 0a65.57696 65.57696 0 1 0 131.15392 0 65.57696 65.57696 0 1 0-131.15392 0Z" fill="#FFBD86" /><path d="M742.15424 542.74048c-42.02496 0-76.20608-34.18112-76.20608-76.22656s34.18112-76.20608 76.20608-76.20608 76.20608 34.18112 76.20608 76.20608-34.18112 76.22656-76.20608 76.22656z m0-131.15392c-30.28992 0-54.94784 24.63744-54.94784 54.94784 0 30.28992 24.63744 54.94784 54.94784 54.94784 30.28992 0 54.94784-24.63744 54.94784-54.94784-0.02048-30.3104-24.65792-54.94784-54.94784-54.94784zM512.6144 894.0544c-81.79712 0-148.35712-66.56-148.35712-148.35712s66.56-148.35712 148.35712-148.35712 148.35712 66.56 148.35712 148.35712-66.53952 148.35712-148.35712 148.35712z m0-275.43552c-70.06208 0-127.0784 56.99584-127.0784 127.0784s56.99584 127.0784 127.0784 127.0784 127.0784-56.99584 127.0784-127.0784-56.99584-127.0784-127.0784-127.0784z"  /><path d="M512.6144 838.9632c-29.9008 0-58.18368-14.49984-75.69408-38.76864a10.641408 10.641408 0 0 1 2.39616-14.848 10.637312 10.637312 0 0 1 14.848 2.39616c13.5168 18.7392 35.36896 29.94176 58.42944 29.94176 39.69024 0 71.9872-32.29696 71.9872-71.9872s-32.29696-71.9872-71.9872-71.9872-71.9872 32.29696-71.9872 71.9872c0 6.22592 0.79872 12.3904 2.3552 18.3296 1.49504 5.67296-1.90464 11.48928-7.59808 12.98432-5.67296 1.49504-11.50976-1.90464-12.98432-7.59808a93.26592 93.26592 0 0 1-3.05152-23.73632c0-51.42528 41.84064-93.26592 93.26592-93.26592s93.26592 41.84064 93.26592 93.26592c0.02048 51.44576-41.79968 93.2864-93.24544 93.2864z"  /><path d="M512.6144 466.51392m-229.51936 0a229.51936 229.51936 0 1 0 459.03872 0 229.51936 229.51936 0 1 0-459.03872 0Z" fill="#FFBD86" /><path d="M353.5872 466.51392a226.83648 194.27328 90 1 0 388.54656 0 226.83648 194.27328 90 1 0-388.54656 0Z" fill="#FED2A4" /><path d="M512.6144 706.68288c-132.42368 0-240.16896-107.74528-240.16896-240.16896s107.74528-240.16896 240.16896-240.16896 240.16896 107.74528 240.16896 240.16896c0 39.936-9.99424 79.4624-28.91776 114.36032a10.62912 10.62912 0 0 1-14.41792 4.28032 10.633216 10.633216 0 0 1-4.28032-14.41792c17.24416-31.78496 26.33728-67.80928 26.33728-104.20224 0-120.68864-98.18112-218.89024-218.89024-218.89024S293.72416 345.82528 293.72416 466.5344c0 120.68864 98.18112 218.89024 218.89024 218.89024 58.96192 0 114.2784-23.10144 155.72992-65.06496a10.643456 10.643456 0 1 1 15.13472 14.97088c-45.4656 45.99808-106.14784 71.35232-170.86464 71.35232z"  /><path d="M522.752 248.09472c-1.00352 0-2.00704-0.14336-3.01056-0.43008-29.92128-8.8064-55.76704-32.01024-67.46112-60.5184-9.80992-23.9616-8.41728-49.37728 3.91168-71.5776l0.18432-0.3072c19.43552-32.39936 55.56224-47.37024 89.88672-37.2736l0.36864 0.12288c20.09088 6.69696 35.90144 23.98208 41.2672 45.09696 4.99712 19.64032 0.12288 39.19872-13.35296 53.63712l-0.24576 0.26624c-14.6432 14.6432-40.26368 16.77312-57.09824 4.75136a10.6496 10.6496 0 0 1-2.47808-14.848 10.633216 10.633216 0 0 1 14.848-2.47808c8.25344 5.89824 22.30272 4.75136 29.57312-2.3552 11.40736-12.34944 10.01472-26.4192 8.15104-33.73056-3.584-14.11072-14.00832-25.62048-27.19744-30.08512-24.7808-7.18848-50.9952 3.93216-65.35168 27.70944-11.61216 21.01248-7.90528 40.42752-2.74432 53.0432 9.15456 22.34368 30.24896 41.24672 53.78048 48.16896a10.6496 10.6496 0 0 1 7.20896 13.2096 10.7008 10.7008 0 0 1-10.24 7.59808z"  /><path d="M575.56992 524.8a40.61184 28.71296 0 1 0 81.22368 0 40.61184 28.71296 0 1 0-81.22368 0Z" fill="#FF8E9E" /><path d="M369.00864 521.56416a40.61184 28.71296 0 1 0 81.22368 0 40.61184 28.71296 0 1 0-81.22368 0Z" fill="#FF8E9E" /><path d="M419.1232 507.98592c-15.50336 0-27.36128-6.57408-33.09568-12.0832a10.663936 10.663936 0 0 1-0.3072-15.0528 10.653696 10.653696 0 0 1 14.9504-0.38912c1.7408 1.57696 16.95744 14.19264 41.79968-1.26976a10.6496 10.6496 0 0 1 14.66368 3.39968 10.6496 10.6496 0 0 1-3.39968 14.66368c-12.61568 7.8848-24.41216 10.73152-34.6112 10.73152z"  /><path d="M552.48896 566.12864m-43.1104 0a43.1104 43.1104 0 1 0 86.2208 0 43.1104 43.1104 0 1 0-86.2208 0Z" fill="#55DAFE" /><path d="M552.48896 619.86816c-29.63456 0-53.73952-24.10496-53.73952-53.73952 0-29.63456 24.10496-53.73952 53.73952-53.73952 29.63456 0 53.73952 24.10496 53.73952 53.73952 0 29.63456-24.10496 53.73952-53.73952 53.73952z m0-86.20032c-17.89952 0-32.4608 14.56128-32.4608 32.4608s14.56128 32.4608 32.4608 32.4608 32.4608-14.56128 32.4608-32.4608-14.56128-32.4608-32.4608-32.4608z"  /><path d="M473.47712 567.05024m-43.1104 0a43.1104 43.1104 0 1 0 86.2208 0 43.1104 43.1104 0 1 0-86.2208 0Z" fill="#55DAFE" /><path d="M473.47712 620.78976c-29.63456 0-53.73952-24.10496-53.73952-53.73952 0-29.63456 24.10496-53.73952 53.73952-53.73952 29.63456 0 53.73952 24.10496 53.73952 53.73952 0 29.61408-24.10496 53.73952-53.73952 53.73952z m0-86.20032c-17.89952 0-32.4608 14.56128-32.4608 32.4608s14.56128 32.4608 32.4608 32.4608c17.89952 0 32.4608-14.56128 32.4608-32.4608s-14.56128-32.4608-32.4608-32.4608z"  /><path d="M601.14944 505.58976c-15.50336 0-27.36128-6.57408-33.09568-12.0832a10.643456 10.643456 0 0 1-0.28672-15.0528 10.653696 10.653696 0 0 1 14.9504-0.38912c1.7408 1.57696 16.95744 14.19264 41.79968-1.26976a10.6496 10.6496 0 0 1 14.66368 3.39968 10.6496 10.6496 0 0 1-3.39968 14.66368c-12.65664 7.8848-24.43264 10.73152-34.63168 10.73152z"  /><path d="M512.26624 565.5552m-31.1296 0a31.1296 31.1296 0 1 0 62.2592 0 31.1296 31.1296 0 1 0-62.2592 0Z" fill="#64B3FB" /><path d="M512.26624 607.3344c-23.04 0-41.75872-18.7392-41.75872-41.75872 0-23.04 18.7392-41.75872 41.75872-41.75872s41.75872 18.7392 41.75872 41.75872-18.7392 41.75872-41.75872 41.75872z m0-62.2592c-11.30496 0-20.48 9.19552-20.48 20.48 0 11.30496 9.19552 20.48 20.48 20.48s20.48-9.19552 20.48-20.48-9.19552-20.48-20.48-20.48z"  /></svg>