<?xml version="1.0" standalone="no"?><!DOCTYPE svg PUBLIC "-//W3C//DTD SVG 1.1//EN" "http://www.w3.org/Graphics/SVG/1.1/DTD/svg11.dtd"><svg class="icon" width="200px" height="200.00px" viewBox="0 0 1024 1024" version="1.1" xmlns="http://www.w3.org/2000/svg"><path d="M482.24256 201.70752s-0.53248-70.41024-103.17824-22.3232c0 0 123.8016-163.26656 159.98976 22.3232h-56.81152z" fill="#FFB357" /><path d="M539.05408 212.35712h-56.81152c-5.81632 0-10.56768-4.66944-10.62912-10.48576-0.02048-0.79872-0.57344-16.2816-12.96384-23.9616-10.07616-6.2464-31.27296-9.37984-75.0592 11.12064a10.631168 10.631168 0 0 1-12.77952-2.94912 10.67008 10.67008 0 0 1-0.2048-13.12768c2.53952-3.33824 62.79168-81.77664 117.0432-69.20192 30.0032 6.9632 50.81088 39.23968 61.87008 95.90784a10.665984 10.665984 0 0 1-10.46528 12.6976zM491.4176 191.0784h34.42688c-7.168-29.73696-20.09088-61.25568-43.02848-66.58048-20.95104-4.85376-46.51008 12.00128-66.58048 30.28992 22.3232-5.05856 40.36608-3.31776 53.90336 5.20192 13.6192 8.6016 19.08736 21.83168 21.27872 31.08864z"  /><path d="M598.24128 218.68544c0-8.6016-1.47456-16.85504-4.1984-24.51456-5.4272-15.29856-24.86272-19.80416-36.352-8.33536l-32.84992 32.84992 32.84992 32.84992c11.4688 11.4688 30.9248 6.9632 36.352-8.33536 2.70336-7.65952 4.1984-15.91296 4.1984-24.51456z" fill="#EA5B70" /><path d="M573.15328 268.61568c-8.54016 0-16.77312-3.35872-22.97856-9.56416l-40.36608-40.36608 40.36608-40.36608c7.96672-7.96672 19.27168-11.24352 30.22848-8.74496 11.03872 2.49856 19.88608 10.36288 23.6544 21.05344 3.19488 9.0112 4.8128 18.45248 4.8128 28.07808s-1.61792 19.06688-4.8128 28.07808c-3.7888 10.69056-12.63616 18.55488-23.6544 21.05344-2.41664 0.512-4.85376 0.77824-7.24992 0.77824z m-33.25952-49.93024l25.31328 25.31328c2.80576 2.80576 6.63552 3.91168 10.50624 3.05152 3.93216-0.88064 6.94272-3.584 8.2944-7.39328 2.37568-6.71744 3.584-13.76256 3.584-20.97152 0-7.18848-1.20832-14.25408-3.584-20.97152-1.35168-3.80928-4.38272-6.51264-8.2944-7.39328-3.87072-0.88064-7.70048 0.22528-10.50624 3.05152l-25.31328 25.31328z"  /><path d="M413.184 218.68544c0-8.6016 1.47456-16.85504 4.1984-24.51456 5.4272-15.29856 24.86272-19.80416 36.352-8.33536l32.84992 32.84992-32.84992 32.84992c-11.4688 11.4688-30.9248 6.9632-36.352-8.33536a73.027584 73.027584 0 0 1-4.1984-24.51456z" fill="#EA5B70" /><path d="M438.272 268.61568c-2.41664 0-4.83328-0.26624-7.24992-0.8192a32.571392 32.571392 0 0 1-23.6544-21.05344c-3.19488-9.0112-4.8128-18.45248-4.8128-28.07808s1.61792-19.06688 4.8128-28.07808c3.7888-10.69056 12.63616-18.55488 23.6544-21.05344 10.97728-2.47808 22.28224 0.77824 30.22848 8.74496l40.36608 40.36608-40.36608 40.36608c-6.20544 6.2464-14.4384 9.60512-22.97856 9.60512z m0.02048-78.58176c-0.83968 0-1.72032 0.1024-2.58048 0.28672-3.93216 0.88064-6.94272 3.584-8.2944 7.39328a62.685184 62.685184 0 0 0-3.584 20.97152c0 7.18848 1.20832 14.25408 3.584 20.97152 1.35168 3.80928 4.38272 6.51264 8.2944 7.39328 3.87072 0.86016 7.68-0.22528 10.50624-3.05152l25.31328-25.31328-25.31328-25.31328c-2.19136-2.19136-4.97664-3.33824-7.92576-3.33824z"  /><path d="M507.16672 233.94304m-40.73472 0a40.73472 40.73472 0 1 0 81.46944 0 40.73472 40.73472 0 1 0-81.46944 0Z" fill="#FF8E9E" /><path d="M507.16672 285.32736c-28.32384 0-51.38432-23.04-51.38432-51.38432s23.04-51.38432 51.38432-51.38432 51.38432 23.04 51.38432 51.38432-23.06048 51.38432-51.38432 51.38432z m0-81.48992c-16.60928 0-30.1056 13.49632-30.1056 30.1056s13.49632 30.1056 30.1056 30.1056 30.1056-13.49632 30.1056-30.1056-13.5168-30.1056-30.1056-30.1056z"  /><path d="M519.61856 852.95104c-4.07552 0.59392-8.23296 0.9216-12.45184 0.9216-47.3088 0-85.64736-38.33856-85.64736-85.64736s38.33856-85.64736 85.64736-85.64736h0.28672a143.495168 143.495168 0 0 1 50.72896-47.67744 142.483456 142.483456 0 0 0-51.01568-9.4208c-78.82752 0-142.7456 63.8976-142.7456 142.7456 0 78.82752 63.8976 142.7456 142.7456 142.7456 25.1904 0 48.8448-6.5536 69.40672-18.00192a143.161344 143.161344 0 0 1-56.95488-40.01792z" fill="#FF8E9E" /><path d="M421.51936 768.22528c0 47.3088 38.33856 85.64736 85.64736 85.64736 4.23936 0 8.3968-0.32768 12.45184-0.9216-21.64736-25.02656-34.77504-57.63072-34.77504-93.32736 0-28.38528 8.31488-54.82496 22.60992-77.04576h-0.28672c-47.3088 0-85.64736 38.33856-85.64736 85.64736z" fill="#FFB5C0" /><path d="M649.89184 768.22528c0-60.84608-38.0928-112.78336-91.72992-133.3248a143.495168 143.495168 0 0 0-50.72896 47.67744c47.16544 0.16384 85.36064 38.44096 85.36064 85.64736 0 43.06944-31.78496 78.70464-73.19552 84.72576a142.90944 142.90944 0 0 0 56.95488 39.99744c43.74528-24.39168 73.33888-71.08608 73.33888-124.7232z" fill="#FFB5C0" /><path d="M519.61856 852.95104c41.39008-6.0416 73.19552-41.65632 73.19552-84.72576 0-47.2064-38.1952-85.48352-85.36064-85.64736a141.932544 141.932544 0 0 0-22.60992 77.04576c0 35.69664 13.12768 68.3008 34.77504 93.32736z" fill="#FFDBE0" /><path d="M278.9376 478.84288m-67.97312 0a67.97312 67.97312 0 1 0 135.94624 0 67.97312 67.97312 0 1 0-135.94624 0Z" fill="#FFBD86" /><path d="M278.9376 557.4656c-43.35616 0-78.60224-35.26656-78.60224-78.60224s35.26656-78.62272 78.60224-78.62272 78.62272 35.26656 78.62272 78.62272-35.26656 78.60224-78.62272 78.60224z m0-135.94624c-31.62112 0-57.32352 25.72288-57.32352 57.344s25.72288 57.32352 57.32352 57.32352 57.344-25.72288 57.344-57.32352-25.72288-57.344-57.344-57.344z"  /><path d="M745.0624 478.84288m-67.97312 0a67.97312 67.97312 0 1 0 135.94624 0 67.97312 67.97312 0 1 0-135.94624 0Z" fill="#FFBD86" /><path d="M745.0624 557.4656c-43.35616 0-78.62272-35.26656-78.62272-78.60224s35.26656-78.62272 78.62272-78.62272 78.60224 35.26656 78.60224 78.62272-35.24608 78.60224-78.60224 78.60224z m0-135.94624c-31.62112 0-57.344 25.72288-57.344 57.344s25.72288 57.32352 57.344 57.32352 57.32352-25.72288 57.32352-57.32352-25.7024-57.344-57.32352-57.344zM507.16672 921.6c-84.5824 0-153.37472-68.8128-153.37472-153.37472s68.8128-153.37472 153.37472-153.37472 153.37472 68.8128 153.37472 153.37472S591.72864 921.6 507.16672 921.6z m0-285.4912c-72.84736 0-132.096 59.26912-132.096 132.096s59.26912 132.096 132.096 132.096 132.096-59.26912 132.096-132.096-59.26912-132.096-132.096-132.096z"  /><path d="M507.16672 864.50176c-30.86336 0-60.06784-14.97088-78.15168-40.01792a10.641408 10.641408 0 0 1 2.39616-14.848 10.641408 10.641408 0 0 1 14.848 2.39616c14.09024 19.53792 36.84352 31.19104 60.88704 31.19104 41.34912 0 74.99776-33.64864 74.99776-74.99776s-33.64864-74.99776-74.99776-74.99776-74.99776 33.64864-74.99776 74.99776c0 6.47168 0.8192 12.9024 2.4576 19.10784 1.49504 5.69344-1.90464 11.48928-7.59808 12.98432-5.67296 1.49504-11.48928-1.90464-12.98432-7.59808a96.73728 96.73728 0 0 1-3.15392-24.51456c0-53.08416 43.19232-96.27648 96.27648-96.27648s96.27648 43.19232 96.27648 96.27648-43.17184 96.29696-96.256 96.29696z"  /><path d="M507.16672 478.84288m-237.89568 0a237.89568 237.89568 0 1 0 475.79136 0 237.89568 237.89568 0 1 0-475.79136 0Z" fill="#FFBD86" /><path d="M342.30272 478.84288a235.1104 201.37984 90 1 0 402.75968 0 235.1104 201.37984 90 1 0-402.75968 0Z" fill="#FED2A4" /><path d="M507.16672 727.38816c-137.05216 0-248.54528-111.49312-248.54528-248.54528s111.49312-248.54528 248.54528-248.54528S755.712 341.79072 755.712 478.84288c0 41.32864-10.3424 82.24768-29.92128 118.33344a10.633216 10.633216 0 0 1-14.41792 4.28032 10.633216 10.633216 0 0 1-4.28032-14.41792c17.89952-32.99328 27.36128-70.41024 27.36128-108.19584 0-125.31712-101.94944-227.26656-227.26656-227.26656s-227.26656 101.94944-227.26656 227.26656 101.94944 227.26656 227.26656 227.26656c61.2352 0 118.64064-23.98208 161.6896-67.56352a10.643456 10.643456 0 1 1 15.13472 14.97088c-47.104 47.63648-109.89568 73.87136-176.8448 73.87136z"  /><path d="M572.39552 539.25888a42.0864 29.75744 0 1 0 84.1728 0 42.0864 29.75744 0 1 0-84.1728 0Z" fill="#FFB5C0" /><path d="M358.31808 535.90016a42.0864 29.75744 0 1 0 84.1728 0 42.0864 29.75744 0 1 0-84.1728 0Z" fill="#FFB5C0" /><path d="M548.47488 582.10304m-44.66688 0a44.66688 44.66688 0 1 0 89.33376 0 44.66688 44.66688 0 1 0-89.33376 0Z" fill="#FF8E9E" /><path d="M548.47488 637.41952c-30.49472 0-55.31648-24.82176-55.31648-55.31648 0-30.49472 24.82176-55.31648 55.31648-55.31648 30.49472 0 55.31648 24.82176 55.31648 55.31648 0 30.49472-24.82176 55.31648-55.31648 55.31648z m0-89.35424c-18.75968 0-34.03776 15.27808-34.03776 34.03776s15.27808 34.03776 34.03776 34.03776 34.03776-15.27808 34.03776-34.03776-15.2576-34.03776-34.03776-34.03776z"  /><path d="M466.57536 583.04512m-44.66688 0a44.66688 44.66688 0 1 0 89.33376 0 44.66688 44.66688 0 1 0-89.33376 0Z" fill="#FF8E9E" /><path d="M466.57536 638.34112c-30.49472 0-55.31648-24.82176-55.31648-55.31648 0-30.49472 24.82176-55.31648 55.31648-55.31648s55.31648 24.82176 55.31648 55.31648c0 30.5152-24.82176 55.31648-55.31648 55.31648z m0-89.33376c-18.75968 0-34.03776 15.27808-34.03776 34.03776s15.27808 34.03776 34.03776 34.03776 34.03776-15.27808 34.03776-34.03776-15.27808-34.03776-34.03776-34.03776z"  /><path d="M506.7776 581.50912m-32.256 0a32.256 32.256 0 1 0 64.512 0 32.256 32.256 0 1 0-64.512 0Z" fill="#FFDBE0" /><path d="M506.7776 624.41472c-23.6544 0-42.9056-19.2512-42.9056-42.9056s19.2512-42.9056 42.9056-42.9056c23.6544 0 42.9056 19.2512 42.9056 42.9056s-19.2512 42.9056-42.9056 42.9056z m0-64.53248c-11.91936 0-21.62688 9.70752-21.62688 21.62688s9.70752 21.62688 21.62688 21.62688 21.62688-9.70752 21.62688-21.62688-9.70752-21.62688-21.62688-21.62688z"  /><path d="M414.80192 523.28448c-5.87776 0-10.62912-4.77184-10.62912-10.62912v-20.6848c0-5.87776 4.77184-10.62912 10.62912-10.62912 5.87776 0 10.62912 4.77184 10.62912 10.62912v20.6848c0 5.85728-4.75136 10.62912-10.62912 10.62912zM596.62336 523.28448c-5.87776 0-10.62912-4.77184-10.62912-10.62912v-20.6848c0-5.87776 4.77184-10.62912 10.62912-10.62912 5.87776 0 10.62912 4.77184 10.62912 10.62912v20.6848c0 5.85728-4.75136 10.62912-10.62912 10.62912z"  /></svg>