<?xml version="1.0" standalone="no"?><!DOCTYPE svg PUBLIC "-//W3C//DTD SVG 1.1//EN" "http://www.w3.org/Graphics/SVG/1.1/DTD/svg11.dtd"><svg class="icon" width="200px" height="200.00px" viewBox="0 0 1024 1024" version="1.1" xmlns="http://www.w3.org/2000/svg"><path d="M640.2048 113.09056c-27.60704-0.512-54.35392 2.80576-79.7696 9.44128-0.9216 0.24576-0.9216 1.55648 0 1.82272 122.38848 35.06176 211.94752 147.7632 211.94752 281.41568 0 133.65248-89.57952 246.35392-211.94752 281.41568-0.9216 0.26624-0.9216 1.57696 0 1.82272 23.67488 6.18496 48.5376 9.50272 74.15808 9.50272 162.67264 0 294.35904-132.68992 292.70016-295.75168-1.57696-157.57312-129.55648-286.69952-287.08864-289.66912z" fill="#7CE3FF" /><path d="M640.2048 113.09056c-13.04576-0.24576-25.86624 0.38912-38.48192 1.80224 141.78304 19.12832 252.1088 140.84096 253.58336 287.06816 1.536 151.92064-112.68096 277.46304-259.85024 293.90848 12.8 1.72032 25.84576 2.62144 39.1168 2.62144 162.67264 0 294.35904-132.68992 292.70016-295.75168-1.55648-157.55264-129.536-286.67904-287.06816-289.64864z" fill="#7CE3FF" /><path d="M855.32672 401.96096c-1.47456-146.20672-111.80032-267.93984-253.58336-287.06816-14.09024 1.57696-27.87328 4.13696-41.28768 7.63904-0.9216 0.24576-0.9216 1.55648 0 1.82272 122.38848 35.06176 211.94752 147.7632 211.94752 281.41568 0 133.65248-89.57952 246.35392-211.94752 281.41568-0.9216 0.26624-0.9216 1.57696 0 1.82272 11.42784 2.99008 23.12192 5.28384 35.0208 6.88128 147.16928-16.46592 261.38624-142.00832 259.85024-293.92896z" fill="#55DAFE" /><path d="M634.59328 709.12c-25.98912 0-51.83488-3.31776-76.84096-9.85088a11.597824 11.597824 0 0 1-8.64256-11.03872 11.620352 11.620352 0 0 1 8.37632-11.28448c120.25856-34.44736 204.24704-145.98144 204.24704-271.19616 0-125.21472-83.98848-236.72832-204.24704-271.19616a11.63264 11.63264 0 0 1-8.3968-11.28448 11.579392 11.579392 0 0 1 8.64256-11.03872c26.86976-7.02464 54.72256-10.30144 82.6368-9.78944 78.97088 1.49504 153.33376 33.44384 209.38752 90.0096 56.05376 56.54528 87.36768 131.19488 88.1664 210.18624 0.53248 53.39136-12.96384 106.00448-39.07584 152.18688a305.149952 305.149952 0 0 1-105.63584 109.568 10.63936 10.63936 0 0 1-14.6432-3.4816 10.661888 10.661888 0 0 1 3.4816-14.6432c85.25824-52.40832 135.5776-143.42144 134.5536-243.4048-1.536-151.06048-125.6448-276.2752-276.66432-279.12192-14.29504-0.26624-28.5696 0.53248-42.68032 2.39616 48.3328 20.45952 91.32032 53.5552 123.43296 95.49824 40.73472 53.248 62.27968 116.92032 62.27968 184.13568s-21.52448 130.88768-62.27968 184.13568c-32.09216 41.94304-75.07968 75.03872-123.43296 95.49824 35.81952 4.75136 72.76544 2.56 107.56096-6.36928 5.69344-1.45408 11.48928 1.96608 12.94336 7.65952 1.45408 5.69344-1.96608 11.48928-7.65952 12.94336-24.4736 6.28736-49.90976 9.48224-75.50976 9.48224z"  /><path d="M503.27552 219.40224l22.65088 41.39008a23.59296 23.59296 0 0 0 9.40032 9.40032l41.39008 22.65088c16.40448 8.97024 16.40448 32.54272 0 41.51296l-41.39008 22.65088a23.59296 23.59296 0 0 0-9.40032 9.40032l-22.65088 41.39008c-8.97024 16.40448-32.54272 16.40448-41.51296 0l-22.65088-41.39008a23.59296 23.59296 0 0 0-9.40032-9.40032l-41.39008-22.65088c-16.40448-8.97024-16.40448-32.54272 0-41.51296l41.39008-22.65088a23.59296 23.59296 0 0 0 9.40032-9.40032l22.65088-41.39008c8.97024-16.40448 32.54272-16.40448 41.51296 0z" fill="#FFCE71" /><path d="M482.5088 430.75584c-12.73856 0-23.98208-6.67648-30.08512-17.83808l-22.65088-41.39008a13.0048 13.0048 0 0 0-5.18144-5.18144l-41.39008-22.65088c-11.1616-6.10304-17.83808-17.36704-17.83808-30.08512 0-12.73856 6.67648-23.98208 17.83808-30.08512l41.39008-22.65088a13.0048 13.0048 0 0 0 5.18144-5.18144l22.6304-41.39008c6.10304-11.1616 17.36704-17.83808 30.08512-17.83808 12.73856 0 23.98208 6.67648 30.08512 17.83808l22.65088 41.39008a13.084672 13.084672 0 0 0 5.16096 5.18144l41.41056 22.65088c11.1616 6.10304 17.83808 17.34656 17.83808 30.08512 0 12.73856-6.67648 23.98208-17.83808 30.08512l-41.39008 22.65088a13.0048 13.0048 0 0 0-5.18144 5.18144l-22.6304 41.39008c-6.10304 11.1616-17.34656 17.83808-30.08512 17.83808z m0-213.01248c-4.83328 0-9.09312 2.53952-11.42784 6.77888l-22.65088 41.39008a34.279424 34.279424 0 0 1-13.63968 13.63968l-41.39008 22.65088a12.859392 12.859392 0 0 0-6.77888 11.42784c0 4.83328 2.53952 9.1136 6.77888 11.42784l41.39008 22.65088c5.75488 3.15392 10.48576 7.86432 13.63968 13.63968l22.65088 41.39008a12.859392 12.859392 0 0 0 11.42784 6.77888c4.83328 0 9.1136-2.53952 11.42784-6.77888l22.65088-41.39008c3.15392-5.77536 7.86432-10.48576 13.63968-13.63968l41.41056-22.65088a12.859392 12.859392 0 0 0 6.77888-11.42784c0-4.83328-2.53952-9.09312-6.77888-11.42784L530.2272 279.552a34.228224 34.228224 0 0 1-13.6192-13.63968l-22.65088-41.41056c-2.33472-4.23936-6.61504-6.7584-11.44832-6.7584z"  /><path d="M796.59008 745.39008l15.85152 28.9792a16.508928 16.508928 0 0 0 6.57408 6.57408l28.9792 15.85152c11.48928 6.28736 11.48928 22.77376 0 29.04064l-28.9792 15.85152a16.508928 16.508928 0 0 0-6.57408 6.57408l-15.85152 28.9792c-6.28736 11.48928-22.77376 11.48928-29.04064 0l-15.85152-28.9792a16.508928 16.508928 0 0 0-6.57408-6.57408l-28.9792-15.85152c-11.48928-6.28736-11.48928-22.77376 0-29.04064l28.9792-15.85152a16.508928 16.508928 0 0 0 6.57408-6.57408l15.85152-28.9792c6.26688-11.4688 22.77376-11.4688 29.04064 0z" fill="#FFCE71" /><path d="M782.06976 896.49152c-9.9328 0-19.08736-5.4272-23.8592-14.15168l-15.85152-28.9792c-0.55296-1.00352-1.35168-1.80224-2.3552-2.3552l-28.95872-15.85152c-8.72448-4.77184-14.15168-13.9264-14.15168-23.8592 0-9.95328 5.4272-19.08736 14.15168-23.8592l28.9792-15.85152c0.98304-0.55296 1.80224-1.35168 2.3552-2.3552l15.85152-28.95872c4.77184-8.72448 13.9264-14.15168 23.8592-14.15168 9.95328 0 19.08736 5.4272 23.8592 14.15168l15.85152 28.9792c0.55296 1.00352 1.35168 1.80224 2.3552 2.3552l28.95872 15.85152c8.72448 4.77184 14.15168 13.90592 14.15168 23.8592s-5.4272 19.08736-14.15168 23.8592l-28.95872 15.85152c-1.00352 0.55296-1.80224 1.35168-2.3552 2.3552l-15.85152 28.95872a27.2384 27.2384 0 0 1-23.87968 14.15168z m0-149.07392c-1.04448 0-3.66592 0.3072-5.20192 3.072l-15.85152 28.95872a27.19744 27.19744 0 0 1-10.81344 10.81344l-28.9792 15.85152c-2.78528 1.51552-3.072 4.13696-3.072 5.18144 0 1.06496 0.3072 3.66592 3.072 5.20192l28.9792 15.85152a27.19744 27.19744 0 0 1 10.81344 10.81344l15.85152 28.9792c1.51552 2.78528 4.13696 3.072 5.18144 3.072 1.06496 0 3.66592-0.3072 5.20192-3.072l15.85152-28.95872a27.19744 27.19744 0 0 1 10.81344-10.81344l28.95872-15.85152c2.78528-1.51552 3.072-4.13696 3.072-5.20192 0-1.04448-0.3072-3.66592-3.072-5.18144l-28.95872-15.85152a27.19744 27.19744 0 0 1-10.81344-10.81344l-15.85152-28.9792c-1.51552-2.7648-4.11648-3.072-5.18144-3.072z"  /><path d="M505.58976 555.29472l-25.06752 76.0832a44.484608 44.484608 0 0 0 6.81984 40.79616l48.45568 63.77472c22.28224 29.32736 1.26976 71.4752-35.57376 71.33184l-80.09728-0.32768a44.412928 44.412928 0 0 0-36.67968 19.10784l-45.6704 65.80224c-21.01248 30.26944-67.584 23.30624-78.82752-11.776l-24.45312-76.288c-4.46464-13.9264-15.50336-24.7808-29.51168-28.99968l-76.6976-23.10144c-35.26656-10.62912-43.04896-57.07776-13.14816-78.62272l64.98304-46.81728c11.8784-8.54016 18.78016-22.38464 18.45248-37.00736l-1.72032-80.0768c-0.79872-36.82304 40.98048-58.5728 70.69696-36.80256l64.6144 47.34976a44.3904 44.3904 0 0 0 40.89856 6.10304l75.63264-26.37824c34.816-12.14464 68.42368 20.86912 56.89344 55.84896z" fill="#FFCE71" /><path d="M420.1472 806.95296l80.09728 0.32768c36.84352 0.14336 57.856-42.00448 35.57376-71.33184l-48.45568-63.77472a44.427264 44.427264 0 0 1-6.81984-40.79616l25.06752-76.0832c11.53024-34.97984-22.07744-67.9936-56.85248-55.86944l-43.6224 15.21664a195.866624 195.866624 0 0 0-32.74752 26.78784c-75.63264 76.96384-74.5472 200.66304 2.41664 276.29568 2.88768 2.82624 5.8368 5.50912 8.84736 8.13056a44.314624 44.314624 0 0 1 36.49536-18.90304z" fill="#FCE3A0" /><path d="M301.44512 921.6c-2.74432 0-5.50912-0.2048-8.2944-0.6144-20.8896-3.11296-37.86752-17.55136-44.31872-37.66272l-24.45312-76.288c-3.39968-10.58816-11.776-18.8416-22.44608-22.05696l-76.6976-23.10144c-20.21376-6.10304-34.95936-22.81472-38.44096-43.64288s4.99712-41.43104 22.13888-53.78048l64.98304-46.81728a33.792 33.792 0 0 0 14.0288-28.16l-1.72032-80.0768c-0.45056-21.11488 10.89536-40.28416 29.63456-50.03264 18.7392-9.74848 40.96-8.06912 57.99936 4.42368l15.58528 11.42784c4.73088 3.4816 5.77536 10.1376 2.29376 14.86848a10.620928 10.620928 0 0 1-14.86848 2.29376l-15.58528-11.42784c-10.60864-7.7824-23.92064-8.78592-35.59424-2.72384-11.6736 6.08256-18.47296 17.55136-18.18624 30.72l1.72032 80.0768a55.02976 55.02976 0 0 1-22.87616 45.8752l-64.98304 46.81728c-10.67008 7.70048-15.74912 20.02944-13.57824 33.01376 2.17088 12.98432 10.99776 22.99904 23.59296 26.78784l76.6976 23.10144a55.005184 55.005184 0 0 1 36.5568 35.9424l24.45312 76.288c4.01408 12.53376 14.17216 21.17632 27.19744 23.12192 12.98432 1.92512 25.25184-3.33824 32.768-14.15168l45.6704-65.80224a55.10144 55.10144 0 0 1 45.2608-23.67488h0.22528l80.09728 0.32768h0.14336c13.08672 0 24.39168-6.98368 30.24896-18.71872 5.87776-11.776 4.62848-25.06752-3.33824-35.5328l-48.45568-63.77472a55.062528 55.062528 0 0 1-8.45824-50.56512l25.06752-76.0832c4.11648-12.4928 0.96256-25.45664-8.41728-34.69312-9.37984-9.216-22.40512-12.12416-34.83648-7.80288l-75.63264 26.37824a55.0912 55.0912 0 0 1-50.70848-7.5776l-5.48864-4.01408c-4.73088-3.4816-5.77536-10.1376-2.29376-14.86848a10.657792 10.657792 0 0 1 14.86848-2.29376l5.48864 4.01408a33.792 33.792 0 0 0 31.10912 4.64896l75.63264-26.37824c19.94752-6.9632 41.69728-2.08896 56.75008 12.71808 15.0528 14.80704 20.31616 36.4544 13.70112 56.5248l-25.06752 76.0832c-3.4816 10.56768-1.536 22.15936 5.20192 31.0272l48.45568 63.77472c12.77952 16.81408 14.86848 38.99392 5.44768 57.89696-9.37984 18.8416-28.2624 30.5152-49.29536 30.5152h-0.22528l-80.09728-0.32768h-0.12288c-11.07968 0-21.44256 5.4272-27.77088 14.52032l-45.6704 65.80224c-10.4448 15.01184-27.21792 23.6544-45.09696 23.6544z"  /><path d="M229.259346 629.764421a49.72544 35.16416 44.498 1 0 49.29202-50.163427 49.72544 35.16416 44.498 1 0-49.29202 50.163427Z" fill="#FF8E9E" /><path d="M314.01984 610.6112c-15.62624 0-27.87328-4.64896-36.49536-13.88544-14.82752-15.89248-11.91936-39.03488-11.79648-40.01792 0.77824-5.81632 6.144-9.89184 11.96032-9.13408 5.79584 0.77824 9.89184 6.10304 9.13408 11.89888-0.04096 0.38912-1.57696 14.4384 6.32832 22.81472 5.0176 5.30432 13.37344 7.63904 24.86272 6.90176 5.81632-0.32768 10.91584 4.07552 11.28448 9.9328a10.633216 10.633216 0 0 1-9.9328 11.28448c-1.80224 0.16384-3.60448 0.2048-5.34528 0.2048z"  /><path d="M378.587885 776.487882a49.72544 35.16416 44.498 1 0 49.29202-50.163426 49.72544 35.16416 44.498 1 0-49.29202 50.163426Z" fill="#FF8E9E" /><path d="M444.1088 739.16416c-8.27392 0-22.40512-1.65888-33.34144-11.50976-10.42432-9.37984-15.27808-23.38816-14.4384-41.61536 0.26624-5.87776 5.30432-10.42432 11.12064-10.1376 5.87776 0.26624 10.40384 5.24288 10.1376 11.12064-0.53248 11.55072 1.96608 19.90656 7.41376 24.82176 8.47872 7.63904 22.65088 5.87776 22.79424 5.85728 5.79584-0.88064 11.22304 3.11296 12.12416 8.92928a10.655744 10.655744 0 0 1-8.92928 12.12416c-0.32768 0.04096-2.94912 0.4096-6.88128 0.4096z"  /><path d="M303.866697 708.215509a21.83168 25.51808 44.498 1 0 35.770447-36.402813 21.83168 25.51808 44.498 1 0-35.770447 36.402813Z" fill="#4C5699" /><path d="M318.03392 724.43904c-8.02816 0-15.7696-2.82624-21.64736-8.58112-6.30784-6.20544-9.56416-15.13472-8.92928-24.4736 0.6144-8.84736 4.56704-17.408 11.12064-24.064 6.5536-6.67648 15.03232-10.752 23.87968-11.53024 9.29792-0.8192 18.28864 2.29376 24.61696 8.4992 12.75904 12.55424 11.79648 34.32448-2.19136 48.5376-7.55712 7.68-17.38752 11.61216-26.84928 11.61216z m11.6736-26.54208l7.5776 7.45472-7.5776-7.45472c5.65248-5.75488 6.7584-14.19264 2.43712-18.45248-2.58048-2.51904-6.0416-2.62144-7.86432-2.47808-3.74784 0.32768-7.5776 2.23232-10.52672 5.24288-2.94912 3.01056-4.8128 6.88128-5.05856 10.62912-0.12288 1.8432 0.04096 5.30432 2.62144 7.82336 4.32128 4.25984 12.73856 2.99008 18.39104-2.7648z"  /></svg>