<?xml version="1.0" standalone="no"?><!DOCTYPE svg PUBLIC "-//W3C//DTD SVG 1.1//EN" "http://www.w3.org/Graphics/SVG/1.1/DTD/svg11.dtd"><svg class="icon" width="200px" height="200.00px" viewBox="0 0 1024 1024" version="1.1" xmlns="http://www.w3.org/2000/svg"><path d="M512 433.2544c-118.41536 0-226.9184 19.456-311.296 51.77344v171.88864h622.592v-171.88864c-84.3776-32.31744-192.88064-51.77344-311.296-51.77344z" fill="#FFB5C0" /><path d="M823.296 485.02784c-84.35712-32.31744-192.88064-51.77344-311.296-51.77344-14.21312 0-28.2624 0.28672-42.16832 0.83968 4.42368 98.01728 62.83264 181.94432 146.18624 222.84288H823.296v-171.90912z" fill="#FFDBE0" /><path d="M833.92512 667.56608H190.07488v-189.8496l6.84032-2.62144c88.33024-33.85344 200.23296-52.49024 315.0848-52.49024s226.75456 18.6368 315.0848 52.49024l6.84032 2.62144v189.8496zM211.3536 646.28736h601.2928v-153.88672c-84.86912-31.31392-191.2832-48.51712-300.6464-48.51712-109.3632 0-215.77728 17.2032-300.6464 48.51712v153.88672z"  /><path d="M180.92032 347.62752h39.60832v290.83648H180.92032z" fill="#D6948C" /><path d="M231.15776 649.1136H170.27072v-312.1152h60.88704v312.1152z m-39.60832-21.27872h18.3296V358.27712h-18.3296v269.55776z"  /><path d="M305.41824 347.62752h39.60832v290.83648h-39.60832z" fill="#D6948C" /><path d="M355.67616 649.1136h-60.86656v-312.1152h60.86656v312.1152z m-39.60832-21.27872h18.3296V358.27712h-18.3296v269.55776z"  /><path d="M429.93664 347.62752h39.60832v290.83648h-39.60832z" fill="#D6948C" /><path d="M480.17408 649.1136h-60.88704v-312.1152h60.88704v312.1152z m-39.58784-21.27872h18.3296V358.27712h-18.3296v269.55776z"  /><path d="M554.45504 347.62752h39.60832v290.83648h-39.60832z" fill="#D6948C" /><path d="M604.69248 649.1136h-60.88704v-312.1152h60.88704v312.1152z m-39.58784-21.27872h18.3296V358.27712h-18.3296v269.55776z"  /><path d="M678.97344 347.62752h39.60832v290.83648h-39.60832z" fill="#D6948C" /><path d="M729.21088 649.1136h-60.88704v-312.1152h60.88704v312.1152z m-39.60832-21.27872h18.3296V358.27712h-18.3296v269.55776z"  /><path d="M803.49184 347.62752h39.60832v290.83648h-39.60832z" fill="#D6948C" /><path d="M853.72928 649.1136h-60.86656v-312.1152h60.86656v312.1152z m-39.60832-21.27872h18.3296V358.27712h-18.3296v269.55776z"  /><path d="M859.5456 360.07936H164.4544c-28.38528 0-51.4048-23.01952-51.4048-51.4048v-30.72c0-28.38528 23.01952-51.4048 51.4048-51.4048h695.0912c28.38528 0 51.4048 23.01952 51.4048 51.4048v30.72c0.02048 28.38528-22.99904 51.4048-51.4048 51.4048z" fill="#D6948C" /><path d="M859.5456 360.07936H520.94976c-28.38528 0-51.4048-23.01952-51.4048-51.4048v-30.72c0-28.38528 23.01952-51.4048 51.4048-51.4048H859.5456c28.38528 0 51.4048 23.01952 51.4048 51.4048v30.72c0.02048 28.38528-22.99904 51.4048-51.4048 51.4048z" fill="#E8B5B1" /><path d="M844.20608 370.70848H179.79392c-42.68032 0-77.39392-34.7136-77.39392-77.39392s34.7136-77.39392 77.39392-77.39392h26.29632c5.87776 0 10.62912 4.77184 10.62912 10.62912s-4.77184 10.62912-10.62912 10.62912H179.79392c-30.94528 0-56.1152 25.16992-56.1152 56.1152s25.16992 56.1152 56.1152 56.1152H844.1856c30.94528 0 56.1152-25.16992 56.1152-56.1152s-25.16992-56.1152-56.1152-56.1152H278.79424c-5.87776 0-10.62912-4.77184-10.62912-10.62912s4.77184-10.62912 10.62912-10.62912H844.1856c42.68032 0 77.39392 34.7136 77.39392 77.39392s-34.69312 77.39392-77.37344 77.39392z"  /><path d="M258.99008 727.18336m-70.26688 0a70.26688 70.26688 0 1 0 140.53376 0 70.26688 70.26688 0 1 0-140.53376 0Z" fill="#D6948C" /><path d="M258.99008 808.07936c-44.60544 0-80.896-36.29056-80.896-80.896s36.29056-80.896 80.896-80.896 80.896 36.29056 80.896 80.896-36.29056 80.896-80.896 80.896z m0-140.51328c-32.8704 0-59.61728 26.74688-59.61728 59.61728 0 32.8704 26.74688 59.61728 59.61728 59.61728s59.61728-26.74688 59.61728-59.61728c0-32.8704-26.74688-59.61728-59.61728-59.61728z"  /><path d="M769.024 727.18336m-70.26688 0a70.26688 70.26688 0 1 0 140.53376 0 70.26688 70.26688 0 1 0-140.53376 0Z" fill="#D6948C" /><path d="M769.024 808.07936c-44.60544 0-80.896-36.29056-80.896-80.896s36.29056-80.896 80.896-80.896 80.896 36.29056 80.896 80.896c0.02048 44.60544-36.27008 80.896-80.896 80.896z m0-140.51328c-32.8704 0-59.61728 26.74688-59.61728 59.61728 0 32.8704 26.74688 59.61728 59.61728 59.61728s59.61728-26.74688 59.61728-59.61728c0.02048-32.8704-26.7264-59.61728-59.61728-59.61728z"  /><path d="M857.27232 690.4832H166.72768c-21.46304 0-38.85056-17.38752-38.85056-38.85056v-23.20384c0-21.46304 17.38752-38.85056 38.85056-38.85056h690.54464c21.46304 0 38.85056 17.38752 38.85056 38.85056v23.20384c0 21.46304-17.38752 38.85056-38.85056 38.85056z" fill="#D6948C" /><path d="M857.27232 690.4832H574.5664c-21.46304 0-38.85056-17.38752-38.85056-38.85056v-23.20384c0-21.46304 17.38752-38.85056 38.85056-38.85056h282.70592c21.46304 0 38.85056 17.38752 38.85056 38.85056v23.20384c0 21.46304-17.38752 38.85056-38.85056 38.85056z" fill="#E8B5B1" /><path d="M845.66016 701.11232h-228.1472c-5.87776 0-10.62912-4.77184-10.62912-10.62912 0-5.87776 4.77184-10.62912 10.62912-10.62912h228.16768c21.95456 0 39.81312-17.85856 39.81312-39.81312s-17.85856-39.81312-39.81312-39.81312H178.33984c-21.95456 0-39.81312 17.85856-39.81312 39.81312s17.85856 39.81312 39.81312 39.81312h357.376c5.87776 0 10.62912 4.77184 10.62912 10.62912 0 5.87776-4.77184 10.62912-10.62912 10.62912H178.33984c-33.6896 0-61.09184-27.40224-61.09184-61.09184 0-33.6896 27.40224-61.09184 61.09184-61.09184h667.3408c33.6896 0 61.09184 27.40224 61.09184 61.09184 0 33.6896-27.42272 61.09184-61.11232 61.09184z"  /><path d="M399.52384 311.25504a33.81248 26.27584 0 1 0 67.62496 0 33.81248 26.27584 0 1 0-67.62496 0Z" fill="#FF8E9E" /><path d="M440.07424 295.60832c-5.87776 0-10.62912-4.77184-10.62912-10.62912v-17.89952c0-5.87776 4.77184-10.62912 10.62912-10.62912s10.62912 4.77184 10.62912 10.62912v17.89952c0 5.87776-4.75136 10.62912-10.62912 10.62912z"  /><path d="M556.8512 305.27488a33.81248 26.27584 0 1 0 67.62496 0 33.81248 26.27584 0 1 0-67.62496 0Z" fill="#FF8E9E" /><path d="M574.40256 295.60832c-5.87776 0-10.62912-4.77184-10.62912-10.62912v-17.89952c0-5.87776 4.77184-10.62912 10.62912-10.62912 5.87776 0 10.62912 4.77184 10.62912 10.62912v17.89952c0 5.87776-4.75136 10.62912-10.62912 10.62912zM508.27264 300.42112c-13.35296 0-23.98208-6.30784-29.2864-11.63264-4.13696-4.15744-4.11648-10.89536 0.04096-15.0528a10.637312 10.637312 0 0 1 14.97088-0.04096c2.21184 2.10944 13.94688 11.73504 31.21152-0.98304a10.631168 10.631168 0 1 1 12.61568 17.12128c-10.52672 7.7824-20.64384 10.58816-29.55264 10.58816z"  /></svg>